<svg
  width={73}
  height={96}
  viewBox="0 0 73 96"
  fill="none"
  xmlns="http://www.w3.org/2000/svg"
>
  <path
    d="M71.6326 25.9929C70.5076 24.1179 67.6951 22.4304 65.4451 22.2429C66.0076 21.3054 66.3826 19.8054 66.3826 18.6804C66.3826 17.7429 66.0076 16.0554 65.4451 15.1179C63.7576 12.1179 60.1951 10.6179 56.8201 11.3679C56.8201 8.18043 54.7576 5.36793 51.3826 4.43043C50.8201 4.05543 49.6951 3.86793 48.9451 3.86793C47.4451 3.86793 45.1951 4.61793 44.0701 5.55543C44.0701 5.36793 44.0701 5.36793 43.8826 5.18043C42.5701 1.24293 38.0701 -0.819569 33.9451 0.305431C31.8826 1.05543 29.4451 3.30543 28.8826 5.55543C27.5701 4.61793 25.5076 3.86793 24.0076 3.86793C23.2576 3.86793 22.1326 4.05543 21.5701 4.43043C18.1951 5.36793 16.1326 8.18043 16.1326 11.3679C12.7576 10.6179 9.19507 12.1179 7.50757 15.1179C6.94507 16.0554 6.57007 17.7429 6.57007 18.6804C6.57007 19.8054 6.94507 21.3054 7.50757 22.2429C5.07007 22.4304 2.63257 23.7429 1.32007 25.9929C0.570069 27.3054 0.382569 28.6179 0.570069 29.9304H72.3826C72.5701 28.6179 72.3826 27.3054 71.6326 25.9929ZM57.1951 35.9304L51.9451 83.9304H43.5076L47.6326 35.9304H25.5076L29.4451 83.9304H21.0076L15.7576 35.9304H0.570069L8.63257 90.8679C9.19507 93.6804 11.8201 95.9304 14.6326 95.9304H58.3201C61.1326 95.9304 63.7576 93.6804 64.3201 90.8679L72.5701 35.9304H57.1951Z"
    fill="#F8F9FA"
  />
</svg>